<?xml version="1.0" standalone="no"?>
<!DOCTYPE svg PUBLIC "-//W3C//DTD SVG 20010904//EN"
 "http://www.w3.org/TR/2001/REC-SVG-20010904/DTD/svg10.dtd">
<svg version="1.0" xmlns="http://www.w3.org/2000/svg"
 width="1080.000000pt" height="1080.000000pt" viewBox="0 0 1080.000000 1080.000000"
 preserveAspectRatio="xMidYMid meet">
<metadata>
Created by potrace 1.11, written by Peter Selinger 2001-2013
</metadata>
<g transform="translate(0.000000,1080.000000) scale(0.100000,-0.100000)"
fill="#000000" stroke="none">
<path d="M5120 8635 c-178 -17 -278 -32 -375 -57 -44 -11 -95 -23 -113 -25
-18 -3 -35 -9 -38 -14 -3 -5 -14 -9 -24 -9 -11 0 -34 -6 -52 -14 -18 -8 -49
-21 -70 -30 -20 -9 -43 -16 -51 -16 -9 0 -17 -3 -19 -7 -1 -5 -21 -17 -43 -28
-87 -43 -191 -112 -268 -177 -24 -21 -23 -21 -47 -8 -10 5 -62 22 -117 37
l-98 27 -1009 3 -1008 4 -43 -25 c-57 -34 -79 -81 -73 -154 3 -31 10 -58 16
-60 7 -2 12 -10 12 -17 0 -31 391 -404 550 -525 25 -19 47 -37 50 -40 18 -19
91 -70 99 -70 6 0 11 -4 11 -8 0 -4 15 -16 33 -27 17 -10 34 -21 37 -25 10
-12 268 -170 278 -170 6 0 12 -3 14 -8 7 -15 298 -152 324 -152 8 0 14 -3 14
-7 0 -5 28 -17 63 -27 34 -11 69 -23 77 -27 19 -10 148 -47 222 -63 32 -7 60
-15 63 -18 3 -3 -3 -39 -14 -79 -24 -93 -50 -289 -57 -443 l-6 -118 -37 -41
c-20 -23 -39 -46 -44 -52 -4 -5 -21 -26 -37 -45 -16 -19 -30 -39 -30 -43 0 -4
-11 -18 -23 -30 -13 -12 -26 -26 -28 -32 -4 -11 -81 -127 -89 -135 -10 -10
-31 -45 -36 -62 -4 -10 -10 -18 -14 -18 -4 0 -11 -11 -14 -25 -4 -14 -11 -25
-16 -25 -6 0 -10 -7 -10 -15 0 -8 -4 -15 -10 -15 -5 0 -10 -5 -10 -11 0 -7
-13 -34 -30 -61 -16 -26 -30 -55 -30 -62 0 -8 -3 -16 -8 -18 -4 -1 -27 -42
-52 -91 l-44 -87 -61 6 c-139 14 -291 -71 -340 -190 -10 -23 -21 -49 -26 -58
-5 -10 -9 -23 -9 -29 0 -11 -22 -67 -41 -101 -5 -10 -9 -23 -9 -29 0 -6 -6
-25 -14 -42 -8 -18 -22 -54 -31 -82 -9 -27 -22 -61 -29 -74 -16 -34 -14 -181
3 -217 33 -71 47 -91 85 -130 23 -22 55 -48 71 -56 52 -28 103 -48 119 -48 26
0 29 -25 13 -82 -33 -116 -37 -139 -37 -223 0 -85 7 -123 37 -192 7 -17 13
-34 13 -38 0 -21 132 -165 152 -165 5 0 25 -10 46 -23 68 -42 144 -59 263 -59
118 1 115 2 99 -57 -5 -20 -23 -94 -40 -166 -17 -71 -33 -139 -36 -150 -13
-50 -36 -153 -41 -185 -3 -19 -9 -39 -13 -45 -4 -5 -11 -35 -15 -65 -4 -30
-11 -61 -16 -70 -10 -20 -31 -122 -36 -183 -13 -132 78 -338 190 -430 65 -53
184 -111 251 -122 21 -3 46 -10 55 -14 24 -13 146 -41 173 -41 13 0 28 -4 33
-9 6 -5 39 -14 75 -21 36 -6 88 -15 115 -19 28 -5 57 -12 65 -15 8 -3 44 -10
80 -16 36 -5 108 -16 160 -25 101 -18 118 -20 385 -53 321 -39 381 -43 690
-49 543 -10 1042 38 1655 157 25 5 72 14 105 20 33 6 68 15 77 20 10 6 28 10
39 10 21 0 44 6 183 46 26 8 55 14 62 14 8 0 22 4 32 8 113 55 142 72 182 103
41 32 140 156 140 174 0 4 6 21 13 38 46 107 57 212 33 305 -9 35 -16 74 -16
87 0 13 -4 26 -9 29 -5 3 -12 31 -16 62 -4 32 -10 64 -15 73 -11 23 -40 152
-40 178 0 12 -4 24 -9 27 -5 3 -12 32 -16 63 -4 32 -10 63 -15 68 -4 6 -10 26
-13 45 -5 33 -25 120 -42 182 l-7 26 114 0 c155 0 267 39 359 125 71 67 92
100 140 225 12 30 12 217 0 256 -45 148 -48 176 -14 176 16 0 68 21 118 48 44
23 110 88 128 125 8 18 21 45 28 61 17 35 18 207 3 227 -6 8 -19 37 -28 64
-10 28 -24 64 -32 82 -8 17 -14 40 -14 52 0 12 -4 21 -10 21 -5 0 -10 8 -10
18 0 9 -7 30 -15 46 -8 15 -15 34 -15 40 0 7 -13 39 -29 72 -69 139 -200 215
-346 200 l-60 -6 -58 112 c-67 132 -110 211 -117 218 -10 10 -31 45 -36 63 -4
9 -10 17 -14 17 -4 0 -11 11 -14 25 -4 14 -11 25 -16 25 -6 0 -10 4 -10 9 0
11 -82 135 -92 139 -5 2 -8 10 -8 18 0 8 -3 14 -7 14 -5 0 -19 17 -33 37 -29
43 -49 68 -106 132 -39 42 -43 51 -53 131 -6 48 -11 116 -11 151 0 80 -23 233
-53 351 -16 66 -13 72 48 82 22 4 51 11 65 15 14 5 52 17 85 26 33 9 69 20 80
24 46 18 91 33 113 38 12 3 22 9 22 14 0 5 7 9 16 9 25 0 316 137 322 152 2 5
9 8 15 8 10 0 267 157 277 170 3 4 20 15 38 25 17 11 32 23 32 27 0 4 5 8 11
8 8 0 81 51 99 70 3 3 25 21 50 40 175 132 520 463 559 535 43 81 20 177 -54
221 l-43 25 -1008 -4 -1009 -3 -98 -27 c-55 -15 -107 -32 -117 -37 -24 -13
-23 -13 -48 8 -80 68 -139 112 -150 112 -6 0 -12 4 -14 8 -1 4 -34 24 -73 42
-38 19 -72 38 -75 41 -3 4 -16 10 -30 13 -14 4 -44 16 -66 26 -23 11 -55 22
-70 25 -16 4 -38 10 -49 15 -36 15 -229 59 -305 70 -272 39 -547 47 -790 25z
m690 -339 c58 -9 137 -23 175 -32 39 -9 82 -18 98 -21 15 -3 30 -9 33 -14 3
-5 14 -9 26 -9 11 0 36 -7 56 -16 88 -39 101 -44 111 -44 6 0 11 -4 11 -9 0
-5 14 -12 30 -16 17 -4 30 -10 30 -15 0 -4 8 -10 18 -14 21 -7 49 -25 76 -49
11 -9 34 -27 50 -38 39 -27 125 -128 151 -177 11 -20 23 -38 28 -40 4 -2 7 -8
7 -14 0 -5 6 -24 14 -41 36 -82 49 -162 49 -307 0 -150 -10 -208 -53 -305 -24
-53 -47 -78 -95 -105 -43 -23 -51 -28 -135 -79 -77 -48 -276 -141 -300 -141
-11 0 -20 -4 -20 -10 0 -5 -8 -10 -19 -10 -10 0 -41 -7 -67 -15 -89 -26 -180
-45 -220 -45 -22 0 -46 -6 -52 -12 -10 -10 -105 -13 -407 -13 -302 0 -397 3
-406 13 -7 6 -31 12 -53 12 -40 0 -131 19 -220 45 -26 8 -57 15 -67 15 -11 0
-19 4 -19 9 0 5 -14 11 -30 15 -48 9 -225 97 -333 165 -54 33 -102 61 -108 61
-14 0 -68 60 -74 84 -4 11 -10 30 -15 41 -34 79 -42 131 -42 275 1 105 6 166
17 207 20 70 47 146 54 153 4 3 15 20 25 39 27 48 42 67 111 136 75 75 107
101 134 110 12 3 21 11 21 16 0 5 7 9 15 9 8 0 15 4 15 9 0 5 14 12 30 16 17
4 30 11 30 16 0 5 5 9 11 9 6 0 27 7 47 16 65 28 76 32 147 53 129 38 294 68
465 85 100 9 548 -3 650 -18z m-2048 -311 c66 -10 73 -22 45 -81 -13 -27 -31
-76 -42 -109 -10 -33 -21 -69 -26 -80 -32 -84 -40 -346 -13 -484 l7 -34 -54 7
c-90 12 -286 61 -344 86 -11 5 -31 12 -45 16 -25 7 -41 13 -173 73 -38 17 -72
31 -77 31 -5 0 -10 3 -12 8 -1 4 -23 17 -48 30 -75 38 -135 74 -138 83 -2 5
-7 9 -12 9 -8 0 -130 78 -140 89 -3 3 -32 26 -65 51 -33 24 -64 48 -70 52 -5
5 -21 17 -35 29 -112 90 -250 218 -250 231 0 10 1423 4 1492 -7z m4778 7 c0
-10 -96 -101 -179 -172 -29 -25 -58 -50 -65 -56 -6 -5 -47 -37 -91 -69 -44
-33 -82 -63 -85 -66 -3 -4 -50 -35 -105 -70 -127 -81 -131 -84 -185 -111 -25
-13 -46 -26 -48 -30 -2 -5 -7 -8 -12 -8 -5 0 -39 -14 -77 -31 -37 -17 -83 -37
-100 -45 -90 -41 -250 -89 -376 -114 -137 -28 -141 -27 -133 13 17 79 23 204
15 289 -13 134 -20 182 -29 193 -4 6 -11 29 -15 52 -4 24 -11 45 -16 49 -5 3
-9 12 -9 20 0 8 -11 37 -25 66 -29 60 -22 78 34 79 20 0 45 4 56 9 26 11 1445
13 1445 2z m-4612 -1192 c2 -6 8 -10 14 -10 6 0 43 -20 82 -45 40 -25 78 -45
84 -45 5 0 12 -3 14 -7 9 -22 256 -143 363 -178 28 -9 57 -20 65 -25 9 -4 31
-11 50 -14 19 -4 44 -11 55 -15 33 -14 168 -41 200 -41 17 0 35 -4 40 -9 29
-26 534 -46 693 -26 l62 7 0 -51 c0 -53 -22 -152 -46 -208 -8 -17 -14 -34 -14
-37 0 -14 -74 -166 -82 -166 -4 0 -8 -5 -8 -11 0 -31 -159 -199 -189 -199 -5
0 -22 -6 -38 -14 -15 -8 -44 -19 -64 -25 -44 -14 -283 -14 -358 -1 -31 5 -101
14 -156 20 -151 16 -339 48 -360 61 -5 4 -32 10 -59 14 -27 3 -58 10 -70 15
-11 4 -46 15 -76 25 -81 25 -87 27 -182 74 -48 24 -106 62 -129 85 l-41 41 6
215 c6 224 24 397 49 490 30 108 27 103 61 96 17 -4 33 -11 34 -16z m3029 -7
c43 -101 71 -345 72 -624 l1 -155 -32 -34 c-39 -40 -116 -89 -178 -114 -79
-32 -84 -34 -140 -51 -30 -10 -65 -21 -76 -25 -12 -5 -43 -12 -70 -15 -27 -4
-53 -10 -59 -14 -20 -12 -201 -43 -355 -61 -52 -6 -120 -15 -151 -20 -60 -11
-269 -14 -269 -4 0 7 54 77 83 109 88 95 190 373 204 556 7 87 8 89 103 108
76 16 134 31 155 40 11 4 45 16 75 26 59 19 142 56 255 113 39 19 80 40 92 46
13 6 23 14 23 19 0 4 6 7 14 7 8 0 21 6 28 13 13 11 29 21 110 65 18 9 35 20
38 23 7 8 32 17 50 18 8 1 20 -11 27 -26z m-3293 -1113 c26 -18 36 -32 36 -52
0 -15 -4 -29 -9 -32 -4 -3 -11 -27 -15 -53 -3 -26 -10 -61 -15 -78 -5 -16 -17
-64 -26 -105 -17 -80 -27 -119 -45 -187 -9 -36 -13 -41 -28 -34 -9 6 -80 33
-157 61 -193 71 -195 72 -195 79 0 8 83 175 91 181 3 3 8 12 12 20 4 8 11 22
17 30 5 8 35 58 67 110 31 52 60 97 65 98 4 2 8 10 8 18 0 8 3 14 8 14 4 0 15
14 25 32 l18 31 53 -54 c30 -30 70 -66 90 -79z m3650 102 c6 -19 28 -54 37
-62 11 -9 119 -190 119 -200 0 -6 4 -10 9 -10 5 0 13 -10 17 -22 4 -13 9 -25
13 -28 3 -3 26 -45 51 -93 52 -102 58 -91 -75 -138 -49 -17 -94 -35 -99 -40
-6 -5 -16 -9 -24 -9 -13 0 -66 -21 -104 -41 -25 -13 -24 -13 -36 34 -6 23 -14
53 -17 67 -4 14 -13 54 -21 90 -8 36 -19 81 -23 100 -21 81 -43 177 -47 200
-4 21 4 31 45 60 27 19 66 54 87 77 37 41 57 46 68 15z m-3268 -280 c5 -5 45
-17 89 -27 44 -10 84 -22 90 -27 5 -4 20 -8 34 -8 14 0 52 -6 85 -14 106 -24
198 -38 316 -47 63 -5 136 -12 163 -15 l47 -6 0 -1589 c0 -1338 -2 -1590 -14
-1595 -7 -3 -74 2 -147 11 -74 9 -172 20 -219 26 -47 5 -93 12 -102 15 -10 3
-48 9 -85 14 -73 10 -230 36 -303 50 -25 5 -76 15 -115 23 -38 7 -77 16 -85
19 -8 4 -37 10 -65 13 -27 4 -54 10 -60 15 -5 4 -26 10 -45 13 -95 14 -193 52
-232 89 -52 51 -63 78 -62 165 1 46 6 88 12 95 5 7 13 39 17 71 4 31 11 60 16
63 5 3 9 18 9 33 0 16 7 48 15 71 8 23 15 55 15 71 0 15 4 30 9 33 5 3 12 31
16 62 4 32 11 66 15 78 5 12 27 102 50 201 22 99 45 196 50 215 5 19 17 69 26
110 9 41 19 82 22 90 3 8 12 44 19 80 7 36 18 83 23 105 5 22 15 67 22 100 6
33 14 62 18 65 3 3 11 34 18 70 7 36 17 83 22 105 5 22 16 69 24 105 8 36 26
112 40 170 15 58 33 134 41 170 13 57 50 212 76 320 4 19 15 67 24 105 28 126
34 150 45 185 5 19 10 45 10 58 0 38 32 64 56 44z m2764 -12 c4 -8 15 -46 24
-85 8 -38 24 -108 35 -155 11 -47 34 -146 51 -220 17 -74 35 -148 39 -165 5
-16 13 -50 16 -75 4 -25 11 -49 15 -55 4 -5 10 -26 13 -45 8 -51 28 -143 35
-160 6 -16 29 -123 39 -180 3 -19 9 -39 13 -45 4 -5 11 -35 15 -65 4 -30 11
-59 15 -65 4 -5 11 -32 15 -59 3 -27 10 -58 15 -70 4 -11 16 -57 25 -101 9
-44 20 -91 25 -105 4 -14 12 -47 18 -75 15 -66 70 -300 81 -345 5 -19 17 -71
26 -115 10 -44 21 -89 26 -100 4 -11 11 -42 14 -70 4 -27 10 -54 15 -60 4 -5
10 -28 13 -50 7 -47 27 -143 35 -165 6 -17 27 -108 43 -185 11 -59 4 -128 -19
-164 -26 -41 -82 -91 -101 -91 -10 0 -21 -3 -25 -7 -9 -9 -93 -32 -146 -40
-19 -3 -39 -9 -45 -13 -5 -5 -32 -11 -60 -15 -27 -3 -59 -10 -70 -15 -21 -8
-106 -25 -330 -64 -161 -29 -385 -61 -520 -76 -44 -4 -108 -12 -142 -15 l-63
-8 0 1596 0 1595 43 6 c23 3 94 10 157 15 118 9 210 23 316 47 33 8 72 14 87
14 14 0 29 5 32 10 3 6 17 10 29 10 26 0 122 27 146 40 21 12 41 8 50 -10z
m-1405 -173 c22 0 79 4 128 8 l87 8 -2 -1594 -3 -1594 -210 0 -210 0 -3 1594
-2 1594 87 -8 c49 -4 106 -8 128 -8z m-2555 -257 c0 -5 7 -10 16 -10 9 0 30
-6 47 -14 18 -8 57 -22 87 -32 30 -10 59 -22 65 -26 5 -4 15 -8 23 -8 8 0 28
-6 45 -14 18 -8 107 -43 200 -78 190 -71 179 -57 146 -183 -18 -71 -28 -114
-58 -246 -4 -19 -11 -40 -14 -46 -7 -11 -42 -7 -62 7 -5 3 -32 15 -60 24 -27
10 -64 24 -82 32 -17 8 -36 14 -42 14 -6 0 -19 4 -29 9 -20 11 -64 28 -197 76
-100 37 -162 60 -200 76 -11 4 -31 11 -45 15 -30 8 -51 28 -41 40 4 5 16 36
26 69 11 33 25 71 32 85 7 14 13 33 13 42 0 9 5 20 10 23 6 3 10 13 10 22 0 8
6 29 14 46 7 18 18 44 24 60 9 21 18 27 42 27 16 0 30 -4 30 -10z m5185 -21
c4 -17 13 -42 21 -57 8 -15 14 -35 14 -44 0 -10 5 -18 10 -18 6 0 10 -9 10
-20 0 -17 18 -66 41 -112 5 -10 9 -23 9 -30 0 -7 7 -26 15 -41 17 -34 6 -52
-41 -63 -16 -4 -33 -10 -39 -14 -5 -3 -32 -14 -60 -24 -27 -10 -59 -21 -70
-26 -46 -18 -105 -40 -175 -66 -41 -14 -89 -33 -107 -40 -17 -8 -36 -14 -42
-14 -6 0 -19 -4 -29 -9 -9 -5 -37 -17 -62 -26 -25 -10 -54 -21 -65 -25 -67
-27 -65 -30 -96 140 -6 30 -14 64 -18 75 -11 27 -41 156 -41 175 0 15 29 27
315 132 61 22 129 49 151 59 23 10 54 21 70 25 15 4 39 13 53 20 14 8 34 14
44 14 9 0 17 5 17 10 0 6 15 10 34 10 30 0 35 -4 41 -31z m-5008 -854 c38 -14
77 -29 88 -34 11 -5 40 -16 65 -26 25 -9 52 -21 60 -25 9 -4 30 -11 48 -15 50
-11 36 -41 -69 -147 -41 -41 -67 -59 -94 -64 -51 -9 -136 18 -175 57 -28 28
-30 36 -30 101 0 57 25 178 37 178 2 0 33 -11 70 -25z m4848 -32 c21 -66 24
-167 7 -200 -17 -30 -88 -70 -138 -79 -54 -8 -105 15 -164 76 -57 58 -76 83
-84 108 -6 17 -1 21 26 27 18 4 39 11 48 15 48 24 93 40 110 40 11 0 20 4 20
9 0 5 15 12 34 15 18 4 51 15 72 26 21 10 42 19 45 20 4 0 14 -26 24 -57z"/>
<path d="M4625 7655 c-139 -34 -305 -152 -335 -237 -12 -34 -12 -41 9 -81 32
-63 104 -135 171 -172 19 -11 37 -23 40 -26 8 -9 72 -39 83 -39 5 0 23 -6 40
-14 37 -16 67 -24 152 -36 88 -13 188 0 272 36 17 8 36 14 42 14 6 0 11 5 11
10 0 6 6 10 14 10 8 0 21 6 28 13 7 6 30 25 52 41 l39 29 -6 66 c-15 181 -118
310 -298 376 -63 23 -239 28 -314 10z"/>
<path d="M5940 7664 c-63 -12 -160 -56 -214 -96 -83 -63 -156 -214 -156 -323
0 -33 6 -45 31 -65 17 -14 40 -33 51 -42 12 -10 27 -18 35 -18 7 0 13 -4 13
-10 0 -5 5 -10 11 -10 6 0 25 -6 42 -13 77 -33 116 -40 220 -40 65 1 113 5
120 12 6 6 21 11 33 11 27 0 161 53 174 69 3 3 21 15 40 25 19 11 49 33 65 48
17 15 33 28 37 28 14 0 88 123 88 146 0 78 -162 212 -320 264 -37 12 -227 22
-270 14z"/>
<path d="M5240 7010 c0 -27 46 -103 74 -123 45 -32 138 -31 185 2 30 22 70 88
71 119 0 9 -40 12 -165 12 -105 0 -165 -4 -165 -10z"/>
</g>
</svg>
